<svg width="65" height="65" viewBox="0 0 65 65" fill="none" xmlns="http://www.w3.org/2000/svg">
<path d="M48.396 64.8H16.572C7.72401 64.8 0.484009 57.5601 0.484009 48.7121V16.8881C0.484009 8.04006 7.72401 0.800049 16.572 0.800049H48.396C57.244 0.800049 64.484 8.04006 64.484 16.8881V48.7121C64.484 57.5601 57.245 64.8 48.396 64.8Z" fill="#3E6DC1"/>
<path d="M50.563 37.0911V50.6331H42.712V38.0001C42.712 34.8271 41.578 32.6611 38.736 32.6611C36.567 32.6611 35.278 34.1201 34.709 35.5321C34.502 36.0371 34.449 36.7381 34.449 37.4461V50.6341H26.597C26.597 50.6341 26.702 29.2361 26.597 27.0201H34.449V30.3661C34.433 30.3931 34.411 30.4181 34.397 30.4441H34.449V30.3661C35.492 28.7611 37.353 26.4651 41.525 26.4651C46.69 26.4651 50.563 29.8401 50.563 37.0911ZM14.406 50.6341H22.255V27.0201H14.406V50.6341ZM22.489 19.0081C22.489 21.2401 20.679 23.05 18.447 23.05C16.215 23.05 14.405 21.2411 14.405 19.0081C14.405 16.7761 16.215 14.9661 18.447 14.9661C20.68 14.9661 22.489 16.7751 22.489 19.0081Z" fill="white"/>
</svg>
