<svg width="2110" height="1572" viewBox="0 0 2110 1572" fill="none" xmlns="http://www.w3.org/2000/svg">
<path d="M2109.62 1380.97H0.869141V1382.02H2109.62V1380.97Z" fill="#EBEBEB"/>
<path d="M1898.33 1448.83H1758.64V1449.88H1898.33V1448.83Z" fill="#EBEBEB"/>
<path d="M1397.79 1460.3H1361.14V1461.36H1397.79V1460.3Z" fill="#EBEBEB"/>
<path d="M1754.43 1409.69H1673.49V1410.75H1754.43V1409.69Z" fill="#EBEBEB"/>
<path d="M404.273 1416.78H222.119V1417.83H404.273V1416.78Z" fill="#EBEBEB"/>
<path d="M468.548 1416.78H441.852V1417.83H468.548V1416.78Z" fill="#EBEBEB"/>
<path d="M950.442 1434.57H555.346V1435.63H950.442V1434.57Z" fill="#EBEBEB"/>
<path d="M1000.42 1192.87H186.059C179.68 1192.86 173.565 1190.31 169.058 1185.8C164.551 1181.28 162.02 1175.17 162.02 1168.79V24.0274C162.075 17.6843 164.631 11.6194 169.132 7.1498C173.633 2.68025 179.716 0.167116 186.059 0.15625H1000.42C1006.81 0.15625 1012.93 2.69345 1017.45 7.2097C1021.96 11.7259 1024.5 17.8513 1024.5 24.2382V1168.79C1024.5 1175.17 1021.96 1181.3 1017.45 1185.81C1012.93 1190.33 1006.81 1192.87 1000.42 1192.87ZM186.059 0.999755C179.959 1.01093 174.113 3.44197 169.804 7.75927C165.494 12.0766 163.074 17.9274 163.074 24.0274V1168.79C163.074 1174.89 165.494 1180.74 169.804 1185.05C174.113 1189.37 179.959 1191.8 186.059 1191.81H1000.42C1006.52 1191.8 1012.37 1189.37 1016.69 1185.06C1021.01 1180.74 1023.44 1174.89 1023.45 1168.79V24.0274C1023.44 17.9235 1021.01 12.0728 1016.69 7.7567C1012.37 3.4406 1006.52 1.0109 1000.42 0.999755H186.059Z" fill="#EBEBEB"/>
<path d="M1912.71 1192.87H1098.31C1091.92 1192.86 1085.81 1190.32 1081.29 1185.8C1076.78 1181.29 1074.24 1175.17 1074.23 1168.79V24.0274C1074.29 17.6805 1076.86 11.6156 1081.37 7.14717C1085.87 2.67878 1091.96 0.166997 1098.31 0.15625H1912.71C1919.05 0.1782 1925.12 2.69624 1929.61 7.16461C1934.1 11.633 1936.65 17.6916 1936.71 24.0274V1168.79C1936.71 1175.16 1934.18 1181.27 1929.68 1185.79C1925.19 1190.3 1919.08 1192.85 1912.71 1192.87ZM1098.31 0.999755C1092.2 1.0109 1086.35 3.4406 1082.04 7.7567C1077.72 12.0728 1075.29 17.9235 1075.28 24.0274V1168.79C1075.29 1174.89 1077.72 1180.74 1082.04 1185.06C1086.35 1189.37 1092.2 1191.8 1098.31 1191.81H1912.71C1918.81 1191.8 1924.66 1189.37 1928.98 1185.06C1933.3 1180.74 1935.73 1174.89 1935.74 1168.79V24.0274C1935.73 17.9235 1933.3 12.0728 1928.98 7.7567C1924.66 3.4406 1918.81 1.0109 1912.71 0.999755H1098.31Z" fill="#EBEBEB"/>
<path d="M1887.11 352.781H1336.98V381.039H1887.11V352.781Z" fill="#E0E0E0"/>
<path d="M1386.53 248.609H1362.28V352.782H1386.53V248.609Z" fill="#EBEBEB"/>
<path d="M1503.74 248.609H1479.49V352.782H1503.74V248.609Z" fill="#EBEBEB"/>
<path d="M1636.79 245.939L1612.89 250.059L1630.59 352.717L1654.49 348.598L1636.79 245.939Z" fill="#EBEBEB"/>
<path d="M1416.56 262.359H1392.31V352.825H1416.56V262.359Z" fill="#EBEBEB"/>
<path d="M1472.27 262.359H1448.02V352.825H1472.27V262.359Z" fill="#EBEBEB"/>
<path d="M1612.89 262.359H1588.63V352.825H1612.89V262.359Z" fill="#EBEBEB"/>
<path d="M1535.56 259.168L1511.89 264.43L1531.52 352.741L1555.19 347.479L1535.56 259.168Z" fill="#EBEBEB"/>
<path d="M1437.52 243.422H1425.42V352.782H1437.52V243.422Z" fill="#EBEBEB"/>
<path d="M1581.68 243.422H1569.57V352.782H1581.68V243.422Z" fill="#EBEBEB"/>
<path d="M1834.31 270.328H1716.21V351.853H1834.31V270.328Z" fill="#EBEBEB"/>
<path d="M1336.98 592.043L1887.11 592.043V563.786L1336.98 563.786V592.043Z" fill="#E0E0E0"/>
<path d="M1837.51 563.828H1861.76V459.656H1837.51V563.828Z" fill="#EBEBEB"/>
<path d="M1720.35 563.828H1744.6V459.656H1720.35V563.828Z" fill="#EBEBEB"/>
<path d="M1569.63 559.685L1593.53 563.805L1611.23 461.146L1587.33 457.027L1569.63 559.685Z" fill="#EBEBEB"/>
<path d="M1807.48 563.785H1831.73V473.32H1807.48V563.785Z" fill="#EBEBEB"/>
<path d="M1751.81 563.785H1776.06V473.32H1751.81V563.785Z" fill="#EBEBEB"/>
<path d="M1611.2 563.785H1635.45V473.32H1611.2V563.785Z" fill="#EBEBEB"/>
<path d="M1668.96 558.477L1692.63 563.738L1712.26 475.427L1688.58 470.166L1668.96 558.477Z" fill="#EBEBEB"/>
<path d="M1786.56 563.785H1798.67V454.425H1786.56V563.785Z" fill="#EBEBEB"/>
<path d="M1642.41 563.785H1654.51V454.425H1642.41V563.785Z" fill="#EBEBEB"/>
<path d="M1389.74 562.898H1507.83V481.374H1389.74V562.898Z" fill="#EBEBEB"/>
<path d="M224.396 890.051V1383.5H249.702V940.661H696.758V1383.5H726.28V890.051H224.396Z" fill="#E0E0E0"/>
<path d="M502.754 890.051V1383.5H528.059V940.661H975.115V1383.5H1004.64V890.051H502.754Z" fill="#F5F5F5"/>
<path d="M662.513 706.168C656.861 696.889 647.583 704.987 647.583 704.987C648.89 687.147 632.526 675.001 632.526 675.001C632.526 675.001 651.547 675.001 654.204 656.823C656.861 638.646 647.583 647.123 638.852 646.996C630.122 646.87 621.012 672.301 632.526 686.641C644.04 700.98 640.961 725.442 614.391 748.933C608.032 754.874 603.262 762.312 600.515 770.569C602.54 748.976 603.678 718.525 597.31 698.239C586.513 663.698 607.094 654.419 613.041 637.169C618.988 619.92 597.31 605.285 597.31 605.285C597.31 605.285 617.723 596.007 607.727 585.378C597.732 574.75 577.235 576.184 577.235 590.102C577.235 604.02 591.152 609.292 591.152 609.292C591.152 609.292 607.094 625.867 607.094 634.597C607.094 643.327 591.152 661.8 591.152 661.8C591.152 661.8 598.449 645.9 583.856 645.225C569.263 644.55 564.582 663.782 570.571 672.428C576.56 681.074 586.513 673.735 586.513 673.735C587.123 683.806 588.647 693.801 591.068 703.595C592.544 708.572 591.869 728.057 590.604 748.301C587.829 740.99 583.397 734.422 577.656 729.111C551.128 705.62 548.134 681.158 559.521 666.819C570.908 652.479 561.925 627.047 553.195 627.174C544.464 627.301 535.186 618.739 537.843 637.001C540.5 655.263 559.521 655.178 559.521 655.178C559.521 655.178 543.157 667.325 544.507 685.165C544.507 685.165 535.186 677.067 529.534 686.346C519.497 702.963 542.82 713.253 546.742 705.071C546.742 705.071 596.255 740.119 584.32 790.56L587.103 794.778C586.724 798.995 586.513 801.315 586.513 801.315L590.393 799.67L594.611 806.165C594.46 813.493 594.841 820.823 595.749 828.096L607.558 810.594C595.623 759.983 645.136 725.105 645.136 725.105C649.227 733.076 672.592 722.785 662.513 706.168Z" fill="#E0E0E0"/>
<path d="M632.527 890.051L616.542 798.573L621.055 771.961H570.74L575.253 798.573L559.311 890.051H632.527Z" fill="#EBEBEB"/>
<path d="M1055.25 1571.43C1506.87 1571.43 1872.98 1550.06 1872.98 1523.69C1872.98 1497.32 1506.87 1475.95 1055.25 1475.95C603.625 1475.95 237.514 1497.32 237.514 1523.69C237.514 1550.06 603.625 1571.43 1055.25 1571.43Z" fill="#F5F5F5"/>
<path d="M1269.22 220.692L1139.3 150.531L1047.68 320.197L1177.6 390.357L1269.22 220.692Z" fill="#407BFF"/>
<path opacity="0.6" d="M1269.22 220.692L1139.3 150.531L1047.68 320.197L1177.6 390.357L1269.22 220.692Z" fill="white"/>
<path d="M1236.87 234.269L1145.73 185.051L1140.78 194.217L1231.92 243.435L1236.87 234.269Z" fill="#407BFF"/>
<path d="M1228.21 250.328L1137.07 201.109L1132.12 210.275L1223.26 259.494L1228.21 250.328Z" fill="#407BFF"/>
<path d="M1219.53 266.375L1128.39 217.156L1123.44 226.322L1214.58 275.541L1219.53 266.375Z" fill="#407BFF"/>
<path d="M1210.83 282.418L1119.69 233.199L1114.74 242.365L1205.88 291.584L1210.83 282.418Z" fill="#407BFF"/>
<path d="M1202.18 298.441L1111.04 249.223L1106.09 258.389L1197.23 307.607L1202.18 298.441Z" fill="#407BFF"/>
<path d="M1193.53 314.527L1102.38 265.309L1097.43 274.475L1188.58 323.693L1193.53 314.527Z" fill="#407BFF"/>
<path d="M1184.88 330.55L1093.74 281.332L1088.79 290.498L1179.93 339.717L1184.88 330.55Z" fill="#407BFF"/>
<path d="M1144.03 329.258L1085.03 297.395L1080.08 306.561L1139.08 338.424L1144.03 329.258Z" fill="#407BFF"/>
<path d="M924.04 221.956C905.66 220.075 888.25 212.786 874.012 201.01C859.775 189.234 849.349 173.501 844.053 155.8C838.757 138.099 838.829 119.225 844.259 101.565C849.69 83.9052 860.235 68.252 874.562 56.5853C888.889 44.9185 906.354 37.7622 924.748 36.0212C943.142 34.2802 961.639 38.0328 977.901 46.8044C994.162 55.576 1007.46 68.9726 1016.1 85.3003C1024.75 101.628 1028.36 120.153 1026.48 138.533C1023.93 163.167 1011.71 185.783 992.506 201.421C973.302 217.059 948.68 224.444 924.04 221.956Z" fill="#407BFF"/>
<path opacity="0.3" d="M940.118 213.907C987.053 210.295 1022.17 169.319 1018.56 122.383C1014.95 75.4471 973.975 40.3258 927.039 43.9374C880.104 47.5489 844.982 88.5255 848.594 135.461C852.205 182.397 893.182 217.518 940.118 213.907Z" fill="white"/>
<path d="M962.462 101.376C952.636 94.4172 938.929 70.6304 938.929 70.5039L930.072 156.71C930.283 154.77 922.607 152.788 917.419 152.492C905.062 151.185 894.645 157.005 893.801 165.145C892.958 173.285 902.236 181.382 914.889 182.648C927.541 183.913 937.537 178.093 938.423 169.742C938.423 168.477 937.537 167.127 937.663 165.988L944.454 99.5626C949.529 105.404 955.762 110.129 962.758 113.438C972.078 117.656 975.41 130.603 975.41 130.603C975.867 125.038 974.921 119.446 972.66 114.34C970.398 109.234 966.892 104.777 962.462 101.376Z" fill="white"/>
<path opacity="0.5" d="M949.38 158.86C982.34 141.767 997.577 105.768 983.412 78.4527C969.247 51.1374 931.044 42.85 898.084 59.9423C865.124 77.0346 849.887 113.034 864.052 140.349C878.217 167.665 916.42 175.952 949.38 158.86Z" fill="white"/>
<path d="M750.692 7.7481L549.969 24.0742L562.192 174.354L762.915 158.028L750.692 7.7481Z" fill="#407BFF"/>
<path d="M741.772 18.294L561.016 32.9961L571.615 163.309L752.371 148.607L741.772 18.294Z" fill="#407BFF"/>
<path opacity="0.5" d="M741.772 18.294L561.016 32.9961L571.615 163.309L752.371 148.607L741.772 18.294Z" fill="white"/>
<path d="M750.911 130.899L752.345 148.613L571.583 163.332L566.438 99.9848L601.063 64.3047L660.825 113.776L688.408 90.0315L750.911 130.899Z" fill="#407BFF"/>
<path opacity="0.3" d="M750.911 130.899L752.345 148.613L571.583 163.332L566.438 99.9848L601.063 64.3047L660.825 113.776L688.408 90.0315L750.911 130.899Z" fill="white"/>
<path d="M714.431 54.9842C714.663 57.8605 714.037 60.7411 712.633 63.2618C711.228 65.7826 709.108 67.8303 706.54 69.1461C703.972 70.462 701.071 70.9869 698.204 70.6544C695.338 70.322 692.634 69.1471 690.436 67.2784C688.237 65.4097 686.641 62.931 685.851 60.1557C685.061 57.3803 685.111 54.433 685.995 51.6862C686.88 48.9395 688.559 46.5166 690.82 44.7239C693.081 42.9312 695.823 41.8492 698.699 41.6147C700.61 41.4589 702.533 41.6811 704.358 42.2688C706.183 42.8564 707.875 43.798 709.336 45.0396C710.797 46.2812 711.998 47.7985 712.873 49.5049C713.747 51.2112 714.276 53.0731 714.431 54.9842Z" fill="#407BFF"/>
<path opacity="0.3" d="M714.431 54.9842C714.663 57.8605 714.037 60.7411 712.633 63.2618C711.228 65.7826 709.108 67.8303 706.54 69.1461C703.972 70.462 701.071 70.9869 698.204 70.6544C695.338 70.322 692.634 69.1471 690.436 67.2784C688.237 65.4097 686.641 62.931 685.851 60.1557C685.061 57.3803 685.111 54.433 685.995 51.6862C686.88 48.9395 688.559 46.5166 690.82 44.7239C693.081 42.9312 695.823 41.8492 698.699 41.6147C700.61 41.4589 702.533 41.6811 704.358 42.2688C706.183 42.8564 707.875 43.798 709.336 45.0396C710.797 46.2812 711.998 47.7985 712.873 49.5049C713.747 51.2112 714.276 53.0731 714.431 54.9842Z" fill="white"/>
<path d="M365.221 185.178L357.46 180.412C356.084 179.562 354.528 179.046 352.916 178.907C351.305 178.768 349.683 179.009 348.182 179.611L313.725 194.161C312.276 194.75 311.006 195.704 310.037 196.932C309.069 198.159 308.435 199.617 308.2 201.162L306.935 209.597C306.72 211.14 306.1 212.597 305.136 213.82C304.173 215.043 302.901 215.987 301.452 216.556L280.87 224.991C279.695 225.469 278.633 226.188 277.752 227.101C276.872 228.015 276.193 229.103 275.76 230.296C275.327 231.488 275.148 232.759 275.237 234.024C275.325 235.29 275.678 236.523 276.273 237.644L331.101 349.998C332.26 352.327 334.252 354.135 336.681 355.064C339.11 355.994 341.8 355.977 344.217 355.017L507.266 286.947C508.45 286.479 509.521 285.766 510.41 284.855C511.298 283.944 511.984 282.855 512.422 281.66C512.86 280.465 513.041 279.191 512.952 277.922C512.863 276.652 512.506 275.416 511.906 274.294L457.078 161.982C455.926 159.646 453.938 157.828 451.508 156.891C449.078 155.953 446.384 155.964 443.961 156.921L374.499 185.979C372.998 186.581 371.376 186.822 369.764 186.683C368.153 186.544 366.596 186.029 365.221 185.178Z" fill="#407BFF"/>
<path d="M464.795 161.097L315.453 223.685C312.407 225.002 309.951 227.392 308.552 230.401C307.152 233.41 306.907 236.828 307.862 240.006L340.547 343.462C341.008 344.944 341.778 346.312 342.806 347.475C343.835 348.638 345.099 349.569 346.514 350.207C347.929 350.845 349.464 351.175 351.017 351.176C352.569 351.176 354.104 350.847 355.52 350.21L504.904 287.706C507.938 286.374 510.382 283.982 511.78 280.978C513.177 277.974 513.431 274.563 512.495 271.385L479.767 167.929C479.322 166.435 478.562 165.053 477.539 163.877C476.516 162.701 475.252 161.758 473.834 161.111C472.416 160.464 470.875 160.127 469.316 160.125C467.757 160.123 466.216 160.454 464.795 161.097Z" fill="#407BFF"/>
<path opacity="0.5" d="M464.795 161.097L315.453 223.685C312.407 225.002 309.951 227.392 308.552 230.401C307.152 233.41 306.907 236.828 307.862 240.006L340.547 343.462C341.008 344.944 341.778 346.312 342.806 347.475C343.835 348.638 345.099 349.569 346.514 350.207C347.929 350.845 349.464 351.175 351.017 351.176C352.569 351.176 354.104 350.847 355.52 350.21L504.904 287.706C507.938 286.374 510.382 283.982 511.78 280.978C513.177 277.974 513.431 274.563 512.495 271.385L479.767 167.929C479.322 166.435 478.562 165.053 477.539 163.877C476.516 162.701 475.252 161.758 473.834 161.111C472.416 160.464 470.875 160.127 469.316 160.125C467.757 160.123 466.216 160.454 464.795 161.097Z" fill="white"/>
<path d="M1006.66 409.255C1008.51 400.548 1009.45 391.671 1009.44 382.769C1009.44 366.253 1006.19 349.899 999.871 334.641C993.551 319.382 984.287 305.518 972.608 293.839C960.93 282.161 947.066 272.897 931.807 266.577C916.548 260.256 900.194 257.003 883.678 257.003C875.883 257.011 868.104 257.731 860.44 259.154C857.235 258.564 853.987 259.154 850.655 258.774C838.802 233.019 819.766 211.232 795.833 196.03C771.901 180.828 744.089 172.857 715.737 173.075H669.344C649.928 172.98 630.683 176.718 612.713 184.072C594.743 191.427 578.401 202.255 564.622 215.936C550.843 229.617 539.899 245.882 532.416 263.799C524.933 281.716 521.059 300.933 521.015 320.35C521.015 321.447 521.015 321.995 521.015 323.092C490.334 328.51 462.811 345.265 443.909 370.031C425.006 394.798 416.105 425.766 418.972 456.789C421.84 487.813 436.265 516.624 459.386 537.507C482.508 558.39 512.635 569.817 543.789 569.521H999.28C1020.53 570.488 1041.3 562.974 1057.01 548.63C1072.72 534.286 1082.09 514.289 1083.06 493.036C1084.03 471.784 1076.51 451.017 1062.17 435.305C1047.83 419.593 1027.83 410.223 1006.58 409.255H1006.66Z" fill="#407BFF"/>
<path opacity="0.5" d="M1006.66 409.255C1008.51 400.548 1009.45 391.671 1009.44 382.769C1009.44 366.253 1006.19 349.899 999.871 334.641C993.551 319.382 984.287 305.518 972.608 293.839C960.93 282.161 947.066 272.897 931.807 266.577C916.548 260.256 900.194 257.003 883.678 257.003C875.883 257.011 868.104 257.731 860.44 259.154C857.235 258.564 853.987 259.154 850.655 258.774C838.802 233.019 819.766 211.232 795.833 196.03C771.901 180.828 744.089 172.857 715.737 173.075H669.344C649.928 172.98 630.683 176.718 612.713 184.072C594.743 191.427 578.401 202.255 564.622 215.936C550.843 229.617 539.899 245.882 532.416 263.799C524.933 281.716 521.059 300.933 521.015 320.35C521.015 321.447 521.015 321.995 521.015 323.092C490.334 328.51 462.811 345.265 443.909 370.031C425.006 394.798 416.105 425.766 418.972 456.789C421.84 487.813 436.265 516.624 459.386 537.507C482.508 558.39 512.635 569.817 543.789 569.521H999.28C1020.53 570.488 1041.3 562.974 1057.01 548.63C1072.72 534.286 1082.09 514.289 1083.06 493.036C1084.03 471.784 1076.51 451.017 1062.17 435.305C1047.83 419.593 1027.83 410.223 1006.58 409.255H1006.66Z" fill="white"/>
<path opacity="0.4" d="M1006.66 409.255C1008.51 400.548 1009.45 391.671 1009.44 382.769C1009.44 366.253 1006.19 349.899 999.871 334.641C993.551 319.382 984.287 305.518 972.608 293.839C960.93 282.161 947.066 272.897 931.807 266.577C916.548 260.256 900.194 257.003 883.678 257.003C875.883 257.011 868.104 257.731 860.44 259.154C857.235 258.564 853.987 259.154 850.655 258.774C838.802 233.019 819.766 211.232 795.833 196.03C771.901 180.828 744.089 172.857 715.737 173.075C696.32 172.98 677.076 176.718 659.106 184.072C641.136 191.427 624.793 202.255 611.015 215.936C597.236 229.617 586.292 245.882 578.809 263.799C571.326 281.716 567.451 300.933 567.407 320.35C567.407 321.447 567.407 321.995 567.407 323.092C536.726 328.51 509.204 345.265 490.301 370.031C471.399 394.798 462.498 425.766 465.365 456.789C468.232 487.813 482.658 516.624 505.779 537.507C528.9 558.39 559.027 569.817 590.182 569.521H999.28C1020.53 570.488 1041.3 562.974 1057.01 548.63C1072.72 534.286 1082.09 514.289 1083.06 493.036C1084.03 471.784 1076.51 451.017 1062.17 435.305C1047.83 419.593 1027.83 410.223 1006.58 409.255H1006.66Z" fill="white"/>
<path d="M1129.77 776.18H987.767C931.86 776.113 878.262 753.874 838.73 714.342C799.198 674.809 776.959 621.211 776.892 565.304V523.129H734.717V565.304C734.795 632.393 761.481 696.712 808.92 744.152C856.359 791.591 920.678 818.277 987.767 818.355H1129.77V776.18Z" fill="#407BFF"/>
<path d="M755.298 495.039L718.732 531.563H791.822L755.298 495.039Z" fill="#407BFF"/>
<path d="M440.672 1317.41L415.367 1240.11C427.847 1229.46 442.546 1221.72 458.392 1217.47C474.239 1213.21 490.835 1212.55 506.972 1215.52L528.059 1287.89L440.672 1317.41Z" fill="#407BFF"/>
<path opacity="0.7" d="M440.672 1317.41L415.367 1240.11C427.847 1229.46 442.546 1221.72 458.392 1217.47C474.239 1213.21 490.835 1212.55 506.972 1215.52L528.059 1287.89L440.672 1317.41Z" fill="white"/>
<g opacity="0.2">
<path d="M427.43 1258.37C430.45 1254.99 433.798 1251.93 437.425 1249.21C441.127 1246.35 445.048 1243.79 449.15 1241.54C451.385 1240.36 453.747 1239.09 456.235 1238C458.724 1236.9 461.212 1235.84 463.869 1235.04C466.456 1234.17 469.089 1233.44 471.756 1232.85L475.678 1231.96L479.6 1231.5C480.866 1231.5 482.131 1231.12 483.354 1231.04H486.981C489.204 1230.91 491.434 1230.98 493.645 1231.25C495.669 1231.46 497.525 1231.63 499.17 1231.92L503.387 1232.89L506.972 1233.82C506.972 1233.82 505.58 1233.82 503.261 1233.82L499.043 1233.61H493.56C491.43 1233.66 489.304 1233.83 487.192 1234.12C484.826 1234.33 482.474 1234.68 480.149 1235.17L476.437 1235.84L472.726 1236.81C470.183 1237.42 467.677 1238.16 465.219 1239.05C462.646 1239.72 460.242 1240.86 457.796 1241.75C455.35 1242.63 453.072 1243.77 450.837 1244.83C448.602 1245.88 446.619 1246.94 444.426 1248.08C442.233 1249.21 440.504 1250.18 438.775 1251.2C435.316 1253.22 432.449 1254.95 430.34 1256.3L427.43 1258.37Z" fill="black"/>
<path d="M429.664 1265.41C429.664 1265.41 430.634 1264.56 432.49 1263.26C434.345 1261.95 436.96 1260.05 440.292 1258.11C444.075 1255.83 447.975 1253.75 451.975 1251.87C456.192 1249.76 461.211 1247.9 466.061 1246.13C468.55 1245.42 471.038 1244.57 473.484 1243.9C475.93 1243.22 478.419 1242.63 480.822 1242.25C483.226 1241.87 485.546 1241.33 487.781 1241.16C490.017 1240.99 491.999 1240.69 494.065 1240.65C497.19 1240.56 500.318 1240.67 503.428 1240.99L506.971 1241.41C506.971 1241.41 505.664 1241.62 503.428 1241.83C502.332 1241.83 500.982 1241.83 499.464 1242.25L494.319 1243.05C492.421 1243.35 490.438 1243.9 488.287 1244.28C486.137 1244.66 484.07 1245.37 481.666 1245.88C479.262 1246.39 477.027 1247.23 474.623 1247.82C472.219 1248.41 469.857 1249.38 467.453 1250.14C457.837 1253.35 448.432 1257.23 441.389 1260.22C437.888 1261.78 434.894 1262.96 432.954 1263.93L429.664 1265.41Z" fill="black"/>
<path d="M435.611 1279.83C436.436 1279.01 437.309 1278.24 438.226 1277.51C439.913 1276.12 442.444 1274.14 445.48 1271.99C449.042 1269.54 452.746 1267.3 456.572 1265.28C460.95 1262.93 465.471 1260.86 470.111 1259.08C474.779 1257.33 479.573 1255.92 484.45 1254.87C486.706 1254.4 488.987 1254.06 491.282 1253.85C493.476 1253.85 495.5 1253.39 497.44 1253.43L502.628 1253.64C504.188 1253.64 505.495 1254.02 506.592 1254.15L510.008 1254.74C510.008 1254.74 508.743 1254.74 506.55 1254.95C505.453 1254.95 504.146 1254.95 502.67 1255.2L497.609 1255.88C495.795 1256.09 493.855 1256.6 491.746 1256.93C489.638 1257.27 487.529 1258.03 485.294 1258.49C483.058 1258.96 480.823 1259.89 478.503 1260.52C476.184 1261.15 473.906 1262.12 471.587 1262.92C469.267 1263.72 466.99 1264.65 464.754 1265.62C462.519 1266.59 460.284 1267.43 458.217 1268.45C454 1270.34 450.077 1272.28 446.746 1273.93C443.414 1275.57 440.588 1277.01 438.69 1278.15L435.611 1279.83Z" fill="black"/>
<path d="M439.154 1289.66C442.077 1286.77 445.253 1284.14 448.644 1281.82C452.122 1279.41 455.757 1277.24 459.525 1275.32C461.634 1274.31 463.742 1273.3 466.062 1272.37C468.382 1271.44 470.659 1270.56 473.063 1269.88C475.434 1269.14 477.841 1268.52 480.275 1268.03C482.623 1267.49 485.004 1267.11 487.403 1266.89C489.64 1266.6 491.895 1266.47 494.151 1266.51C496.15 1266.44 498.153 1266.52 500.139 1266.76L505.201 1267.44L508.996 1268.36C511.063 1268.91 512.244 1269.29 512.244 1269.29C512.244 1269.29 510.978 1269.29 508.87 1269.29H505.032H500.097C498.166 1269.29 496.237 1269.4 494.319 1269.63C492.168 1269.81 490.029 1270.11 487.909 1270.51C485.716 1270.81 483.691 1271.44 481.161 1271.95C478.63 1272.45 476.606 1273.17 474.328 1273.85C469.832 1275.21 465.411 1276.82 461.085 1278.65C456.868 1280.43 453.114 1282.24 449.867 1283.84C446.619 1285.44 443.92 1286.88 442.064 1288.06L439.154 1289.66Z" fill="black"/>
<path d="M444.047 1302.82C444.83 1302 445.661 1301.22 446.535 1300.5C448.18 1299.11 450.5 1297.12 453.494 1294.97C456.911 1292.52 460.474 1290.28 464.164 1288.27C466.147 1287.13 468.382 1286.03 470.491 1285.02C472.599 1284.01 475.003 1283.12 477.281 1282.11C479.558 1281.1 481.962 1280.51 484.282 1279.79C486.602 1279.07 488.963 1278.57 491.283 1278.14C493.474 1277.74 495.684 1277.44 497.904 1277.26C500.055 1277.26 502.122 1276.92 503.936 1277.01L508.997 1277.34C510.473 1277.34 511.78 1277.85 512.834 1278.02L516.124 1278.78H512.75C511.696 1278.78 510.388 1278.78 508.954 1278.78L504.062 1279.24C502.291 1279.45 500.351 1279.92 498.368 1280.17C496.386 1280.42 494.151 1281.18 492.084 1281.6C490.018 1282.02 487.867 1282.95 485.463 1283.54C483.059 1284.13 480.992 1285.06 478.757 1285.9C476.522 1286.75 474.286 1287.59 472.135 1288.56C469.985 1289.53 467.918 1290.38 465.809 1291.39C461.592 1293.29 458.007 1295.23 454.759 1296.87C451.512 1298.51 448.813 1299.91 446.999 1301.09L444.047 1302.82Z" fill="black"/>
</g>
<path d="M429.706 1317.96L481.666 1278.57C482.299 1278.08 483.03 1277.74 483.808 1277.55C484.586 1277.37 485.395 1277.36 486.179 1277.51L545.519 1288.77C546.682 1288.99 547.749 1289.56 548.574 1290.41C549.398 1291.25 549.938 1292.34 550.119 1293.5C550.299 1294.67 550.112 1295.87 549.583 1296.93C549.053 1297.98 548.208 1298.85 547.164 1299.4L498.198 1325.93C497.4 1326.34 496.522 1326.57 495.626 1326.61L433.207 1328.21C432.004 1328.23 430.827 1327.86 429.844 1327.17C428.861 1326.48 428.122 1325.49 427.733 1324.36C427.345 1323.22 427.326 1321.99 427.681 1320.84C428.035 1319.69 428.744 1318.68 429.706 1317.96Z" fill="#407BFF"/>
<path d="M523.377 1341.33C523.377 1341.33 603.257 1148.04 617.343 1136.06C631.43 1124.08 720.672 1176 720.672 1176L641.214 1380L523.377 1341.33Z" fill="#407BFF"/>
<path opacity="0.2" d="M546.321 1339.94C546.321 1339.94 622.827 1155.29 634.214 1147.32C645.601 1139.35 710.804 1173.34 710.804 1173.34C710.804 1173.34 642.86 1131.84 622.025 1138.89C601.191 1145.93 530.168 1335.72 530.168 1335.72L546.321 1339.94Z" fill="black"/>
<path d="M707.303 1322.35H368.047V1522.68H707.303V1322.35Z" fill="#263238"/>
<path opacity="0.2" d="M707.303 1322.35H368.047V1522.68H707.303V1322.35Z" fill="white"/>
<path opacity="0.4" d="M707.302 1322.35H496.68V1522.68H707.302V1322.35Z" fill="white"/>
<path d="M496.68 1324.46L576.559 1260.14L754.749 1272.29L707.302 1324.46H496.68Z" fill="#263238"/>
<path d="M496.68 1324.46L436.328 1254.87L308.748 1268.57L368.046 1322.35L496.68 1324.46Z" fill="#263238"/>
<path opacity="0.1" d="M496.68 1324.46L436.328 1254.87L308.748 1268.57L368.046 1322.35L496.68 1324.46Z" fill="white"/>
<path opacity="0.4" d="M496.68 1324.46L576.559 1260.14L754.749 1272.29L707.302 1324.46H496.68Z" fill="white"/>
<path d="M643.07 1414.54C632.409 1414.54 621.988 1417.7 613.125 1423.63C604.261 1429.55 597.352 1437.97 593.273 1447.82C589.193 1457.67 588.126 1468.5 590.206 1478.96C592.285 1489.41 597.419 1499.02 604.957 1506.56C612.495 1514.09 622.099 1519.23 632.554 1521.31C643.01 1523.39 653.847 1522.32 663.696 1518.24C673.545 1514.16 681.963 1507.25 687.886 1498.39C693.808 1489.52 696.97 1479.1 696.97 1468.44C696.97 1454.15 691.291 1440.44 681.183 1430.33C671.074 1420.22 657.365 1414.54 643.07 1414.54ZM643.07 1489.91C638.814 1489.91 634.654 1488.65 631.115 1486.28C627.577 1483.92 624.82 1480.55 623.194 1476.62C621.567 1472.69 621.143 1468.36 621.977 1464.19C622.81 1460.02 624.863 1456.18 627.875 1453.18C630.888 1450.17 634.724 1448.12 638.899 1447.3C643.075 1446.47 647.401 1446.91 651.33 1448.54C655.26 1450.18 658.616 1452.94 660.975 1456.48C663.333 1460.02 664.587 1464.19 664.579 1468.44C664.579 1471.27 664.022 1474.06 662.941 1476.67C661.859 1479.27 660.274 1481.64 658.277 1483.64C656.279 1485.63 653.907 1487.21 651.298 1488.29C648.688 1489.36 645.892 1489.92 643.07 1489.91Z" fill="#407BFF"/>
<path opacity="0.7" d="M691.657 1445.03C690.684 1443.04 689.585 1441.11 688.367 1439.26C686.789 1436.75 684.981 1434.39 682.968 1432.21C673.758 1422 660.96 1415.75 647.246 1414.75C645.846 1414.6 644.437 1414.53 643.029 1414.54C634.843 1414.55 626.768 1416.43 619.415 1420.03C612.062 1423.62 605.624 1428.85 600.589 1435.3C595.554 1441.75 592.053 1449.27 590.353 1457.28C588.652 1465.28 588.796 1473.57 590.774 1481.52C591.273 1483.58 591.922 1485.61 592.714 1487.59C593.843 1490.53 595.255 1493.36 596.931 1496.02C601.304 1503.32 607.345 1509.48 614.56 1513.99C621.774 1518.5 629.956 1521.23 638.432 1521.96C639.992 1521.96 641.553 1522.17 643.113 1522.17C652.228 1522.16 661.192 1519.84 669.168 1515.43C677.144 1511.02 683.872 1504.66 688.724 1496.94C693.576 1489.23 696.393 1480.41 696.914 1471.31C697.434 1462.21 695.64 1453.13 691.699 1444.91L691.657 1445.03ZM643.071 1489.91C642.397 1489.95 641.721 1489.95 641.046 1489.91C637.15 1489.55 633.425 1488.13 630.28 1485.8C627.134 1483.48 624.687 1480.33 623.206 1476.71C622.705 1475.48 622.31 1474.21 622.025 1472.91C621.883 1472.1 621.785 1471.29 621.73 1470.47C621.688 1469.83 621.688 1469.2 621.73 1468.57C621.725 1465.74 622.276 1462.95 623.352 1460.34C624.429 1457.73 626.009 1455.36 628.003 1453.36C629.997 1451.36 632.365 1449.78 634.972 1448.7C637.58 1447.61 640.375 1447.06 643.197 1447.06C643.703 1447.02 644.21 1447.02 644.716 1447.06C649.143 1447.34 653.374 1448.99 656.82 1451.78C657.669 1452.49 658.458 1453.27 659.182 1454.1C659.803 1454.77 660.367 1455.49 660.869 1456.25C663.386 1459.83 664.728 1464.11 664.707 1468.48C664.701 1471.31 664.136 1474.11 663.044 1476.72C661.953 1479.34 660.355 1481.7 658.345 1483.7C656.334 1485.69 653.949 1487.26 651.328 1488.33C648.707 1489.39 645.901 1489.93 643.071 1489.91Z" fill="white"/>
<path opacity="0.2" d="M641.046 1489.78L638.389 1522.09C629.913 1521.36 621.732 1518.62 614.517 1514.11C607.303 1509.61 601.261 1503.45 596.889 1496.15L623.206 1476.58C624.687 1480.2 627.134 1483.35 630.279 1485.68C633.425 1488.01 637.149 1489.43 641.046 1489.78Z" fill="white"/>
<path opacity="0.2" d="M682.967 1432.21L656.692 1451.74C653.246 1448.95 649.016 1447.3 644.588 1447.02L647.245 1414.75C660.958 1415.75 673.757 1422.01 682.967 1432.21Z" fill="white"/>
<path opacity="0.2" d="M622.024 1472.79L592.754 1487.59C591.962 1485.61 591.314 1483.58 590.814 1481.52L621.729 1470.34C621.783 1471.16 621.882 1471.98 622.024 1472.79Z" fill="white"/>
<path opacity="0.2" d="M691.656 1445.04L660.742 1456.21C660.24 1455.45 659.676 1454.73 659.055 1454.06L688.366 1439.26C689.585 1441.11 690.683 1443.04 691.656 1445.04Z" fill="white"/>
<path d="M682.419 1429.52C652.897 1429.52 636.744 1450.31 646.866 1475.91C656.988 1501.51 689.252 1522.3 718.985 1522.3C748.719 1522.3 764.703 1501.55 754.581 1475.91C744.459 1450.27 712.195 1429.52 682.419 1429.52ZM708.02 1494.42C701.984 1494.29 696.103 1492.49 691.027 1489.22C685.95 1485.95 681.877 1481.35 679.256 1475.91C675.039 1465.7 681.576 1457.39 693.427 1457.39C699.461 1457.54 705.338 1459.34 710.412 1462.61C715.487 1465.87 719.563 1470.48 722.191 1475.91C726.281 1486.11 719.871 1494.42 708.02 1494.42Z" fill="#407BFF"/>
<path opacity="0.1" d="M741.339 1455.75C739.694 1454.06 737.965 1452.37 736.109 1450.77C733.643 1448.59 731.037 1446.58 728.307 1444.74C716.031 1436.08 701.654 1430.88 686.68 1429.68C685.204 1429.68 683.812 1429.68 682.462 1429.68C652.94 1429.68 636.787 1450.43 646.909 1476.08C648.473 1480.05 650.498 1483.83 652.94 1487.34C654.228 1489.17 655.637 1490.92 657.157 1492.57C659.317 1495.2 661.671 1497.67 664.201 1499.95C678.06 1512.7 695.721 1520.55 714.473 1522.3C716.076 1522.3 717.679 1522.3 719.239 1522.3C749.015 1522.3 764.957 1501.51 754.877 1475.91C751.695 1468.38 747.1 1461.54 741.339 1455.75ZM707.978 1494.42H705.912C697.315 1493.57 689.35 1489.53 683.601 1483.08C682.699 1482.05 681.881 1480.95 681.155 1479.79C680.734 1479.11 680.354 1478.4 680.016 1477.68C679.729 1477.15 679.475 1476.6 679.257 1476.03C675.04 1465.79 681.577 1457.52 693.428 1457.52C693.933 1457.48 694.441 1457.48 694.946 1457.52C699.773 1457.88 704.456 1459.33 708.653 1461.74C709.748 1462.35 710.804 1463.02 711.816 1463.76C712.663 1464.32 713.466 1464.94 714.22 1465.62C717.735 1468.38 720.492 1472 722.233 1476.12C726.282 1486.11 719.872 1494.42 707.978 1494.42Z" fill="white"/>
<path opacity="0.2" d="M705.912 1494.29L714.347 1522.13C695.595 1520.38 677.934 1512.53 664.074 1499.78L683.728 1482.91C689.439 1489.34 697.354 1493.4 705.912 1494.29Z" fill="white"/>
<path opacity="0.2" d="M728.305 1444.74L708.652 1461.61C704.455 1459.2 699.771 1457.76 694.945 1457.39L686.51 1429.6C701.551 1430.79 715.99 1436.02 728.305 1444.74Z" fill="white"/>
<path opacity="0.2" d="M681.154 1479.66L656.903 1492.31C655.383 1490.66 653.974 1488.92 652.686 1487.08L679.888 1477.55C680.267 1478.28 680.69 1478.98 681.154 1479.66Z" fill="white"/>
<path opacity="0.2" d="M741.339 1455.75L714.22 1465.41C713.467 1464.73 712.663 1464.11 711.816 1463.55L736.109 1450.9C737.965 1452.37 739.694 1454.06 741.339 1455.75Z" fill="white"/>
<path d="M1571.47 1159.97L1572.99 1225.64L1579.9 1522.68H1602.72L1609.6 1225.64L1611.11 1159.97H1571.47Z" fill="#407BFF"/>
<path opacity="0.4" d="M1571.47 1159.97L1572.99 1225.64L1579.9 1522.68H1602.72L1609.6 1225.64L1611.11 1159.97H1571.47Z" fill="white"/>
<path opacity="0.2" d="M1571.47 1159.97L1572.99 1227.45H1609.6L1611.11 1159.97H1571.47Z" fill="black"/>
<path d="M1447.56 1521.62L1468.65 1164.61H1503.1L1473.58 1521.62H1447.56Z" fill="#407BFF"/>
<path opacity="0.5" d="M1473.67 1521.62H1447.6L1466.75 1196.66L1468.65 1164.19H1503.1L1500.45 1196.66L1473.67 1521.62Z" fill="white"/>
<path opacity="0.2" d="M1503.1 1164.19L1500.45 1197.93H1466.75L1468.65 1164.19H1503.1Z" fill="black"/>
<path d="M1709.04 1521.62L1679.52 1164.61H1713.98L1735.07 1521.62H1709.04Z" fill="#407BFF"/>
<path opacity="0.5" d="M1708.96 1521.62L1682.18 1196.66L1679.52 1164.19H1713.98L1715.88 1196.66L1735.02 1521.62H1708.96Z" fill="white"/>
<path opacity="0.2" d="M1679.52 1164.19L1682.18 1197.93H1715.88L1713.98 1164.19H1679.52Z" fill="black"/>
<path d="M1732.41 1176.97H1450.17V1148.84C1450.17 1143.24 1452.4 1137.88 1456.35 1133.92C1460.31 1129.97 1465.67 1127.75 1471.26 1127.75H1711.32C1716.92 1127.75 1722.28 1129.97 1726.23 1133.92C1730.19 1137.88 1732.41 1143.24 1732.41 1148.84V1177.05V1176.97Z" fill="#407BFF"/>
<path d="M1445.15 1176.93H1737.47C1742.15 1176.93 1745.95 1173.13 1745.95 1168.45V1160.77C1745.95 1156.09 1742.15 1152.3 1737.47 1152.3H1445.15C1440.47 1152.3 1436.68 1156.09 1436.68 1160.77V1168.45C1436.68 1173.13 1440.47 1176.93 1445.15 1176.93Z" fill="#407BFF"/>
<path opacity="0.6" d="M1445.15 1176.93H1737.47C1742.15 1176.93 1745.95 1173.13 1745.95 1168.45V1160.77C1745.95 1156.09 1742.15 1152.3 1737.47 1152.3H1445.15C1440.47 1152.3 1436.68 1156.09 1436.68 1160.77V1168.45C1436.68 1173.13 1440.47 1176.93 1445.15 1176.93Z" fill="white"/>
<path d="M1490.03 727.678C1490.03 727.678 1488.85 730.883 1486.7 736.113C1484.55 741.343 1481.26 749.314 1477.25 758.002C1467.55 779.09 1453.46 805.913 1438.75 820.379C1435.05 824.269 1430.6 827.368 1425.67 829.489C1409.98 835.52 1370.63 836.616 1335.5 836.279C1300.37 835.942 1270.34 834.17 1270.34 834.17V807.558L1385.86 776.77C1385.86 776.77 1446.76 666.862 1482.86 650.582L1490.03 727.678Z" fill="#263238"/>
<path opacity="0.2" d="M1486.7 736.157C1484.51 741.64 1481.26 749.358 1477.25 758.046C1467.55 779.134 1453.47 805.957 1438.75 820.423C1423.77 765.258 1479.15 712.75 1479.15 712.75L1486.7 736.157Z" fill="black"/>
<path d="M1471.77 1492.23L1438.15 1487.63L1433.52 1407.75L1467.04 1412.39L1471.77 1492.23Z" fill="#EBB376"/>
<path opacity="0.2" d="M1467.04 1412.39L1433.52 1407.79L1436.17 1453.43L1469.7 1456.38L1467.04 1412.39Z" fill="black"/>
<path d="M1470.42 1022.74L1478.6 971.366L1666.79 960.105C1666.79 960.105 1686.82 1066.98 1671.43 1095.45C1643.97 1146.27 1495.94 1120.75 1452.58 1125.6C1478.64 1231.67 1476.11 1438.33 1476.11 1438.33L1414.24 1443.05C1414.24 1443.05 1366.67 1220.07 1357.01 1114.09C1350.47 1042.73 1409.77 1044.5 1470.42 1022.74Z" fill="#407BFF"/>
<path d="M1483.37 1441.41L1409.01 1446.26L1402.64 1414.42L1484.34 1410.66L1483.37 1441.41Z" fill="#407BFF"/>
<path d="M1394.25 1462.41L1360.43 1464.9L1339.25 1387.76L1373.04 1385.32L1394.25 1462.41Z" fill="#EBB376"/>
<path d="M1355.87 1466.04H1355.28C1355.28 1465.53 1353.55 1456.04 1349.46 1453.81C1348.94 1453.55 1348.36 1453.41 1347.77 1453.41C1347.19 1453.41 1346.61 1453.55 1346.09 1453.81C1345.44 1454.01 1344.89 1454.42 1344.51 1454.98C1344.13 1455.54 1343.96 1456.22 1344.02 1456.89C1344.84 1459.68 1346.6 1462.11 1349 1463.76C1345.92 1462.71 1342.57 1462.8 1339.55 1464.02C1339.14 1464.32 1338.82 1464.73 1338.62 1465.19C1338.41 1465.66 1338.32 1466.17 1338.37 1466.67C1338.32 1467.47 1338.49 1468.27 1338.87 1468.97C1339.25 1469.67 1339.82 1470.25 1340.52 1470.64C1342.64 1471.46 1344.98 1471.46 1347.1 1470.64C1350.03 1469.77 1352.86 1468.58 1355.53 1467.09H1355.83C1355.83 1467.09 1355.83 1467.09 1355.83 1466.84C1355.92 1466.73 1355.98 1466.59 1355.98 1466.45C1355.99 1466.3 1355.95 1466.16 1355.87 1466.04ZM1345.71 1456.59C1345.71 1456.13 1345.71 1455.54 1346.85 1455.12H1347.23C1347.52 1455.01 1347.84 1454.98 1348.16 1455.02C1348.47 1455.05 1348.77 1455.16 1349.04 1455.33C1351.49 1456.64 1353.26 1461.78 1353.97 1464.86L1353.21 1464.65C1349.88 1462.67 1346 1458.87 1345.71 1456.59ZM1341.28 1468.99C1340.86 1468.71 1340.52 1468.32 1340.3 1467.87C1340.07 1467.42 1339.96 1466.92 1339.97 1466.42C1339.95 1466.17 1339.99 1465.93 1340.08 1465.7C1340.18 1465.47 1340.33 1465.27 1340.52 1465.11C1342.46 1463.68 1348.62 1464.9 1353.17 1466.25C1347.56 1469.03 1343.26 1470.05 1341.28 1468.99Z" fill="#407BFF"/>
<path opacity="0.2" d="M1373.04 1385.32L1339.25 1387.8L1351.36 1431.88L1384.76 1427.79L1373.04 1385.32Z" fill="black"/>
<path d="M1327.78 1426.44L1387.33 1408.81C1387.33 1408.81 1351.78 1208.14 1315.64 1138.55C1318.34 1137.66 1321.92 1136.53 1326.35 1135.22C1334.32 1132.81 1344.91 1129.82 1357.35 1126.36C1443.89 1102.36 1619.3 1057.36 1619.3 1057.36L1539.16 982.586C1539.16 982.586 1219.98 1031.26 1213.36 1115.35C1210.28 1155.76 1327.78 1426.44 1327.78 1426.44Z" fill="#407BFF"/>
<path d="M1395.01 1410.24L1323.31 1430.53L1310.45 1400.71L1389.57 1380L1395.01 1410.24Z" fill="#407BFF"/>
<path opacity="0.2" d="M1326.43 1135.34C1334.4 1132.94 1344.99 1129.94 1357.43 1126.49C1354.94 1106.07 1354.9 1082.67 1364.73 1070.73C1384.25 1046.94 1434.49 1032.98 1463.08 1027.92C1486.99 1023.7 1567.34 1015.27 1567.34 1015.27C1567.34 1015.27 1463.08 1005.27 1356.46 1036.36C1303.83 1051.79 1314.08 1103.29 1326.43 1135.34Z" fill="black"/>
<path d="M1677.42 1013.79C1690.07 1004.13 1677.92 914.302 1684.37 825.945C1694.2 691.406 1684.37 648.177 1674.46 644.002C1656.16 640.828 1637.65 638.995 1619.09 638.519C1591.93 637.548 1564.74 638.14 1537.65 640.29C1519.11 642.563 1500.78 646.286 1482.82 651.424C1482.82 651.424 1438.45 792.711 1466.79 996.206L1677.42 1013.79Z" fill="#263238"/>
<path opacity="0.8" d="M1687.87 756.696C1687.33 776.476 1686.14 799.419 1684.2 825.905C1677.75 914.262 1689.81 1004.1 1677.25 1013.75L1466.58 996.166C1454 907.838 1453.93 818.178 1466.37 729.831C1483.49 703.092 1516.73 672.599 1531.99 659.229C1537.06 664.783 1543.94 668.355 1551.39 669.309C1567.8 672.515 1586.53 665.092 1602 655.645C1614.24 667.833 1637.43 692.506 1647.6 713.298C1648.66 715.452 1649.6 717.663 1650.42 719.919C1656.87 737.97 1676.57 715.702 1686.61 686.685C1688.33 709.981 1688.75 733.354 1687.87 756.696Z" fill="white"/>
<path d="M1609.09 547.211C1604.49 573.528 1600.4 621.608 1619.09 638.731C1611.5 646.876 1602.38 653.44 1592.25 658.044C1582.11 662.648 1571.17 665.2 1560.04 665.554C1526.3 667.03 1537.69 640.249 1537.69 640.249C1566.79 632.658 1565.52 610.98 1560 590.736L1609.09 547.211Z" fill="#EBB376"/>
<path opacity="0.2" d="M1589.06 565.051L1560 590.946C1561.36 595.648 1562.31 600.46 1562.83 605.328C1573.96 603.514 1589.02 590.904 1589.99 579.179C1590.54 574.453 1590.23 569.664 1589.06 565.051Z" fill="black"/>
<path d="M1545.28 479.1C1559.83 488.969 1553.21 505.67 1520.31 531.861C1506.99 514.695 1504.75 480.955 1515.38 472.52C1526.01 464.085 1532.63 470.538 1545.28 479.1Z" fill="#263238"/>
<path d="M1607.74 506.259C1606.18 541.813 1607.02 562.647 1589.44 581.204C1562.95 609.082 1518.84 593.562 1509.77 558.261C1501.67 526.545 1505.55 473.911 1540.09 459.023C1547.68 455.734 1555.99 454.443 1564.21 455.271C1572.44 456.099 1580.32 459.02 1587.1 463.755C1593.89 468.49 1599.34 474.881 1602.95 482.321C1606.57 489.761 1608.21 498.002 1607.74 506.259Z" fill="#EBB376"/>
<path d="M1554.98 516.802C1554.98 519.712 1553.55 522.074 1551.65 522.116C1549.75 522.158 1548.23 519.839 1548.19 516.929C1548.15 514.019 1549.58 511.699 1551.48 511.657C1553.38 511.615 1554.73 513.976 1554.98 516.802Z" fill="#263238"/>
<path d="M1522.13 517.438C1522.13 520.305 1520.69 522.667 1518.79 522.709C1516.9 522.752 1515.34 520.474 1515.29 517.522C1515.25 514.57 1516.73 512.25 1518.63 512.25C1520.52 512.25 1522.08 514.696 1522.13 517.438Z" fill="#263238"/>
<path d="M1532.88 518.617C1529.59 527.502 1525.09 535.889 1519.51 543.543C1521.51 544.906 1523.78 545.823 1526.17 546.23C1528.56 546.638 1531 546.527 1533.35 545.904L1532.88 518.617Z" fill="#D58745"/>
<path d="M1563.79 506.258C1564.17 506.306 1564.54 506.216 1564.85 506.005C1565.03 505.872 1565.18 505.706 1565.29 505.515C1565.4 505.324 1565.48 505.113 1565.51 504.894C1565.54 504.675 1565.53 504.451 1565.47 504.237C1565.42 504.022 1565.32 503.821 1565.19 503.643C1563.57 501.476 1561.46 499.729 1559.03 498.547C1556.6 497.365 1553.93 496.785 1551.23 496.853C1551.01 496.864 1550.8 496.917 1550.61 497.011C1550.42 497.104 1550.24 497.235 1550.1 497.396C1549.96 497.558 1549.85 497.746 1549.78 497.949C1549.72 498.153 1549.69 498.368 1549.71 498.582C1549.76 499.018 1549.98 499.418 1550.31 499.7C1550.65 499.982 1551.08 500.125 1551.52 500.101C1553.65 500.077 1555.76 500.562 1557.67 501.516C1559.57 502.469 1561.23 503.864 1562.49 505.583C1562.65 505.779 1562.85 505.94 1563.07 506.056C1563.3 506.172 1563.54 506.241 1563.79 506.258Z" fill="#263238"/>
<path d="M1506.99 506.599C1507.31 506.6 1507.63 506.51 1507.9 506.338C1508.18 506.166 1508.4 505.921 1508.55 505.629C1509.37 503.666 1510.66 501.931 1512.3 500.566C1513.93 499.201 1515.87 498.248 1517.95 497.784C1518.4 497.711 1518.79 497.468 1519.06 497.105C1519.33 496.743 1519.45 496.29 1519.38 495.844C1519.32 495.403 1519.09 495.004 1518.73 494.736C1518.38 494.467 1517.93 494.35 1517.49 494.41C1514.85 494.961 1512.38 496.138 1510.29 497.84C1508.2 499.543 1506.54 501.722 1505.47 504.195C1505.28 504.598 1505.26 505.058 1505.41 505.477C1505.56 505.896 1505.87 506.238 1506.27 506.43C1506.49 506.551 1506.73 506.61 1506.99 506.599Z" fill="#263238"/>
<path d="M1593.15 474.966C1576.66 480.955 1579.02 498.795 1604.49 532.198C1621.7 518.66 1632.12 486.564 1623.81 475.81C1615.5 465.055 1607.74 469.779 1593.15 474.966Z" fill="#263238"/>
<path d="M1625.24 534.305C1624.1 538.587 1622.12 542.602 1619.42 546.119C1616.72 549.636 1613.35 552.586 1609.51 554.802C1599.18 560.622 1591.21 552.06 1591.67 540.884C1592.14 530.762 1598.04 515.579 1609.55 514.314C1621.07 513.049 1628.03 523.677 1625.24 534.305Z" fill="#EBB376"/>
<path d="M1560 551.766C1557.5 555.585 1554 558.642 1549.88 560.599C1545.76 562.556 1541.17 563.338 1536.63 562.858" stroke="#263238" stroke-width="0.526291" stroke-linecap="round" stroke-linejoin="round"/>
<path d="M1557.13 469.314C1557.13 469.314 1562.45 504.91 1596.73 507.272C1631.02 509.633 1638.36 488.335 1638.36 488.335C1635.57 488.741 1632.75 488.967 1629.93 489.01C1629.93 489.01 1639.96 471.76 1629.93 455.27C1619.89 438.779 1585.73 421.15 1560.38 429.965C1552.49 427.387 1544.16 426.469 1535.9 427.267C1527.64 428.066 1519.63 430.564 1512.38 434.604C1488.64 448.395 1492.86 478.466 1492.86 478.466C1492.86 478.466 1491.8 460.204 1502.89 455.101C1502.89 455.101 1489.19 492.679 1509.73 502.717C1509.68 502.59 1511.71 465.603 1557.13 469.314Z" fill="#263238"/>
<path d="M1498.8 805.701C1498.8 805.701 1376.49 802.917 1369.58 802.242C1362.66 801.568 1333.69 785.372 1327.4 784.487C1321.12 783.601 1304.71 809.792 1302.65 815.865C1300.58 821.938 1349.04 838.387 1353.72 837.67C1359.14 836.226 1364.41 834.262 1369.45 831.807L1494.29 847.876L1498.8 805.701Z" fill="#EBB376"/>
<path d="M1143.81 831.008V842.184C1143.81 845.516 1149.55 847.878 1152.88 847.878H1413.48C1416.86 847.878 1422.17 845.516 1422.17 842.184V831.008H1143.81Z" fill="#263238"/>
<path opacity="0.6" d="M1143.81 831.008V842.184C1143.81 845.516 1149.55 847.878 1152.88 847.878H1413.48C1416.86 847.878 1422.17 845.516 1422.17 842.184V831.008H1143.81Z" fill="white"/>
<path opacity="0.2" d="M1143.81 831.008V842.184C1143.81 845.516 1149.55 847.878 1152.88 847.878H1324.75C1328.12 847.878 1333.6 845.516 1333.6 842.184V831.008H1143.81Z" fill="black"/>
<path d="M1102.02 693.982L1133.06 835.226C1133.61 837.529 1134.89 839.594 1136.7 841.113C1138.52 842.633 1140.78 843.526 1143.14 843.661H1312.52C1313.6 843.564 1314.65 843.226 1315.59 842.671C1316.53 842.116 1317.34 841.359 1317.95 840.454C1318.56 839.549 1318.96 838.519 1319.12 837.439C1319.28 836.36 1319.2 835.258 1318.88 834.214L1287.89 694.53C1287.25 692.396 1285.91 690.543 1284.07 689.284C1282.24 688.025 1280.02 687.435 1277.81 687.613H1108.43C1103.88 687.613 1101.01 689.385 1102.02 693.982Z" fill="#263238"/>
<path opacity="0.6" d="M1102.02 693.982L1133.06 835.226C1133.61 837.529 1134.89 839.594 1136.7 841.113C1138.52 842.633 1140.78 843.526 1143.14 843.661H1312.52C1313.6 843.564 1314.65 843.226 1315.59 842.671C1316.53 842.116 1317.34 841.359 1317.95 840.454C1318.56 839.549 1318.96 838.519 1319.12 837.439C1319.28 836.36 1319.2 835.258 1318.88 834.214L1287.89 694.53C1287.25 692.396 1285.91 690.543 1284.07 689.284C1282.24 688.025 1280.02 687.435 1277.81 687.613H1108.43C1103.88 687.613 1101.01 689.385 1102.02 693.982Z" fill="white"/>
<path opacity="0.4" d="M1102.02 693.982L1133.06 835.226C1133.61 837.529 1134.89 839.594 1136.7 841.113C1138.52 842.633 1140.78 843.526 1143.14 843.661H1306.82C1307.91 843.563 1308.96 843.224 1309.9 842.669C1310.84 842.115 1311.65 841.359 1312.26 840.455C1312.88 839.551 1313.28 838.523 1313.45 837.443C1313.62 836.364 1313.54 835.261 1313.23 834.214L1282.23 694.53C1281.6 692.396 1280.26 690.543 1278.42 689.284C1276.59 688.025 1274.37 687.435 1272.15 687.613H1108.43C1103.88 687.613 1101.01 689.385 1102.02 693.982Z" fill="white"/>
<path opacity="0.2" d="M1201.72 784.614C1193.84 784.614 1185.74 776.179 1183.67 765.719C1181.6 755.26 1186.37 746.656 1194.43 746.656C1195.87 746.687 1197.3 746.973 1198.64 747.5C1199.37 751.229 1200.97 754.734 1203.31 757.731C1205.65 760.728 1208.66 763.132 1212.1 764.749C1212.19 765.025 1212.26 765.307 1212.31 765.593C1214.42 776.179 1209.65 784.614 1201.72 784.614Z" fill="black"/>
<path opacity="0.2" d="M1687.87 756.694C1669.7 786.217 1644.26 817.637 1618.92 816.161C1592.39 814.601 1619.13 760.448 1647.64 713.296C1648.7 715.45 1649.64 717.661 1650.46 719.918C1656.92 737.969 1676.61 715.7 1686.65 686.684C1688.36 709.98 1688.77 733.353 1687.87 756.694Z" fill="black"/>
<path d="M1674.46 644.004C1737.01 666.525 1627.23 835.901 1593.11 853.361C1558.99 870.822 1469.32 850.704 1469.32 850.704L1474.89 798.365C1474.89 798.365 1545.87 803.173 1560 799.588C1574.13 796.003 1607.7 723.673 1627.02 689.722C1637.73 669.952 1654.31 653.983 1674.46 644.004Z" fill="#263238"/>
<path opacity="0.2" d="M1483.37 1441.41L1409.01 1446.26L1402.64 1414.42L1484.34 1410.66L1483.37 1441.41Z" fill="white"/>
<path opacity="0.2" d="M1395.01 1410.24L1323.31 1430.53L1310.45 1400.71L1389.57 1380L1395.01 1410.24Z" fill="white"/>
<path d="M1357.14 1461.44L1393.75 1451.24C1394.35 1451.05 1395 1451.1 1395.57 1451.38C1396.14 1451.67 1396.57 1452.16 1396.78 1452.76L1406.69 1481.27C1407.11 1482.8 1406.9 1484.44 1406.11 1485.83C1405.32 1487.21 1404.01 1488.22 1402.48 1488.65C1389.61 1491.98 1383.33 1492.86 1367.17 1497.33C1357.26 1500.08 1337.95 1506.4 1323.82 1508C1309.69 1509.61 1308.51 1495.6 1314.33 1493.71C1328.16 1489.07 1344.74 1474.64 1351.91 1464.86C1353.22 1463.17 1355.06 1461.97 1357.14 1461.44Z" fill="#263238"/>
<path d="M1434.82 1487.67C1434.82 1487.08 1434.23 1477.51 1430.61 1474.47C1430.07 1474.07 1429.45 1473.79 1428.8 1473.64C1428.15 1473.48 1427.47 1473.47 1426.81 1473.59C1426.13 1473.65 1425.48 1473.93 1424.96 1474.39C1424.45 1474.84 1424.09 1475.45 1423.94 1476.12C1424.09 1479.02 1425.27 1481.77 1427.27 1483.88C1424.45 1482.22 1421.14 1481.61 1417.91 1482.15C1417.45 1482.37 1417.05 1482.7 1416.75 1483.11C1416.45 1483.53 1416.26 1484.01 1416.18 1484.51C1415.98 1485.26 1416 1486.05 1416.22 1486.8C1416.44 1487.54 1416.87 1488.21 1417.45 1488.73C1419.35 1489.94 1421.64 1490.39 1423.86 1489.99C1426.87 1489.75 1429.84 1489.15 1432.71 1488.22C1432.76 1488.24 1432.81 1488.26 1432.86 1488.26C1432.91 1488.26 1432.96 1488.24 1433.01 1488.22V1487.97C1433.01 1487.97 1433.81 1487.97 1433.85 1487.67C1433.9 1487.38 1434.57 1487.67 1434.57 1487.67H1434.82ZM1425.5 1476.29C1425.5 1475.82 1425.8 1475.23 1426.89 1475.02H1427.27C1427.59 1474.99 1427.91 1475.03 1428.21 1475.14C1428.51 1475.25 1428.78 1475.43 1429 1475.65C1431.15 1477.43 1431.74 1482.78 1431.87 1485.99L1431.2 1485.61C1428.26 1483.27 1426.24 1479.97 1425.5 1476.29ZM1418.59 1487.46C1418.26 1487.09 1418.03 1486.65 1417.92 1486.17C1417.81 1485.69 1417.82 1485.2 1417.95 1484.72C1417.98 1484.47 1418.07 1484.24 1418.22 1484.04C1418.37 1483.84 1418.57 1483.68 1418.8 1483.58C1420.95 1482.57 1426.73 1485.06 1430.82 1487.29C1424.74 1488.94 1420.27 1488.94 1418.59 1487.63V1487.46Z" fill="#407BFF"/>
<path d="M1435.63 1483.58L1473.58 1481.22C1473.9 1481.18 1474.22 1481.2 1474.52 1481.29C1474.82 1481.37 1475.11 1481.52 1475.36 1481.71C1475.61 1481.91 1475.81 1482.16 1475.96 1482.43C1476.11 1482.71 1476.21 1483.02 1476.24 1483.33L1479.95 1513.28C1480.01 1514.06 1479.91 1514.84 1479.66 1515.58C1479.42 1516.32 1479.02 1517 1478.51 1517.59C1478 1518.18 1477.37 1518.66 1476.67 1519.01C1475.97 1519.35 1475.21 1519.55 1474.43 1519.6C1461.18 1520.24 1454.81 1519.86 1438.11 1520.78C1427.86 1521.37 1407.66 1523.57 1393.49 1522.18C1379.32 1520.78 1381.09 1506.87 1387.21 1506.19C1401.67 1504.55 1420.95 1493.92 1429.93 1485.82C1431.53 1484.46 1433.53 1483.68 1435.63 1483.58Z" fill="#263238"/>
<path d="M1266.59 1522.68H1292.4L1296.66 876.348H1262.37L1266.59 1522.68Z" fill="#407BFF"/>
<path opacity="0.4" d="M1262.33 877.398L1263 981.698L1266.54 1522.68H1292.4L1295.94 981.698L1296.61 877.398H1262.33Z" fill="white"/>
<path opacity="0.2" d="M1262.33 877.398L1263 982.836H1295.94L1296.61 877.398H1262.33Z" fill="black"/>
<path d="M992.279 1522.68H1018.09L1064.53 876.348H1030.24L992.279 1522.68Z" fill="#407BFF"/>
<path opacity="0.5" d="M992.236 1522.68H1018.09L1062.25 908.481L1064.52 877.398H1030.24L1028.38 908.481L992.236 1522.68Z" fill="white"/>
<path opacity="0.2" d="M1028.38 906.921H1062.25L1064.52 877.398H1030.24L1028.38 906.921Z" fill="black"/>
<path d="M1540.89 1522.68H1566.7L1528.75 876.348H1494.46L1540.89 1522.68Z" fill="#407BFF"/>
<path opacity="0.5" d="M1494.46 877.398L1496.74 908.481L1540.89 1522.68H1566.7L1530.6 908.481L1528.75 877.398H1494.46Z" fill="white"/>
<path opacity="0.2" d="M1528.75 877.398H1494.46L1496.74 906.921H1530.6L1528.75 877.398Z" fill="black"/>
<path d="M1546.8 892.543L1012.18 892.543C1010.99 892.543 1009.8 892.307 1008.7 891.85C1007.59 891.392 1006.59 890.721 1005.74 889.875C1004.9 889.029 1004.23 888.025 1003.77 886.919C1003.31 885.814 1003.08 884.63 1003.08 883.433V860.195L1555.91 860.195V883.433C1555.91 885.849 1554.95 888.166 1553.24 889.875C1551.53 891.583 1549.21 892.543 1546.8 892.543Z" fill="#407BFF"/>
<path opacity="0.6" d="M1546.8 892.543L1012.18 892.543C1010.99 892.543 1009.8 892.307 1008.7 891.85C1007.59 891.392 1006.59 890.721 1005.74 889.875C1004.9 889.029 1004.23 888.025 1003.77 886.919C1003.31 885.814 1003.08 884.63 1003.08 883.433V860.195L1555.91 860.195V883.433C1555.91 885.849 1554.95 888.166 1553.24 889.875C1551.53 891.583 1549.21 892.543 1546.8 892.543Z" fill="white"/>
<path opacity="0.2" d="M1003.08 876.348L1555.91 876.348V860.152L1003.08 860.152V876.348Z" fill="black"/>
<path d="M987.049 864.41H1571.93C1574.35 864.399 1576.67 863.43 1578.38 861.715C1580.09 860 1581.04 857.678 1581.04 855.258C1581.04 852.842 1580.08 850.525 1578.38 848.817C1576.67 847.108 1574.35 846.148 1571.93 846.148H987.049C984.633 846.148 982.316 847.108 980.608 848.817C978.899 850.525 977.939 852.842 977.939 855.258C977.939 857.678 978.898 860 980.605 861.715C982.312 863.43 984.629 864.399 987.049 864.41Z" fill="#407BFF"/>
<path opacity="0.6" d="M987.049 864.41H1571.93C1574.35 864.399 1576.67 863.43 1578.38 861.715C1580.09 860 1581.04 857.678 1581.04 855.258C1581.04 852.842 1580.08 850.525 1578.38 848.817C1576.67 847.108 1574.35 846.148 1571.93 846.148H987.049C984.633 846.148 982.316 847.108 980.608 848.817C978.899 850.525 977.939 852.842 977.939 855.258C977.939 857.678 978.898 860 980.605 861.715C982.312 863.43 984.629 864.399 987.049 864.41Z" fill="white"/>
</svg>
